<svg width="82" height="84" viewBox="0 0 82 84" fill="none" xmlns="http://www.w3.org/2000/svg">
<path d="M73.9062 81.8312C74.0646 79.925 70.9667 72.3771 70.4896 69.9146C70.2518 68.5415 69.7669 67.2229 69.0583 66.0229C69.0583 66.0229 76.1292 61.0188 76.5271 60.4604C77.0717 60.4955 77.6176 60.4154 78.1291 60.2254C78.6407 60.0354 79.1065 59.7396 79.4961 59.3575C79.8857 58.9754 80.1904 58.5154 80.3903 58.0076C80.5902 57.4998 80.6808 56.9556 80.6562 56.4104C80.6562 52.8354 79.0688 41.8729 73.6667 40.3646C72.1771 39.904 70.5873 39.876 69.0825 40.2839C67.5777 40.6919 66.2197 41.5189 65.1667 42.6687C65.1667 42.6687 59.4479 36.3146 58.3333 38.3771C57.2187 40.4396 56.825 41.5563 57.4604 42.2729C58.0958 42.9896 60.3208 45.6896 60.3208 45.6896C60.3208 45.6896 60.1625 48.0708 56.4292 48.4688C56.0536 49.4563 55.8904 50.5118 55.95 51.5667C55.95 51.5667 52.5333 55.775 51.6625 56.5708L54.9187 60.9396C53.0059 59.6888 50.8797 58.7998 48.6458 58.3167C46.5812 58.3167 41.3375 54.6625 38.875 54.9813C38.875 54.9813 31.0083 40.9354 29.8187 38.8562C27.2771 34.4083 34.4063 29.6375 32.2021 27.8938C30.2958 26.3833 27.7542 33.4542 26.0062 32.8188C21.3979 29.4833 20.1271 24.3979 17.0292 26.5437C16.0292 27.9687 23.9417 35.3604 24.3375 38.9354C24.7333 42.5104 29.1042 57.6021 30.2958 59.1125C32.3355 61.2095 34.4836 63.1984 36.7312 65.0708L36.3354 66.8979L42.6083 73.4917L39.4292 82.625M20.05 22.2771C25.6458 21.8979 35.8417 18.9188 38.8729 13.4354C41.5458 8.60833 53.8875 7.79583 45.3875 3.10833C36.8875 -1.57917 18.9354 4.14167 11.9458 9.54375C4.95625 14.9458 -3.14792 20.5063 4.32083 22.7313C11.7896 24.9563 15.3625 22.5938 20.05 22.2771V22.2771Z" stroke="#FECB21" stroke-width="2.08333" stroke-linecap="round" stroke-linejoin="round"/>
</svg>
