<svg width="75" height="75" viewBox="0 0 75 75" fill="none" xmlns="http://www.w3.org/2000/svg">
<g clip-path="url(#clip0_1_2)">
<path d="M7.55859 10.6359L36.7919 5.53462L68.0098 10.6359C70.92 10.6359 72.7783 13.7399 71.404 16.305L41.1954 72.6898C39.744 75.3986 35.8603 75.3996 34.4077 72.6914L4.16528 16.3066C2.78935 13.7414 4.64766 10.6359 7.55859 10.6359Z" fill="#FECB21"/>
<path d="M39.588 45.1028C39.588 49.3018 36.184 52.7057 31.9852 52.7057C27.7863 52.7057 24.3823 49.3018 24.3823 45.1028C24.3823 40.9039 27.7862 37.5 31.9852 37.5C36.1841 37.5 39.588 40.9039 39.588 45.1028ZM49.2357 57.1078C45.5263 55.1401 40.9242 56.5521 38.9565 60.2613C36.9888 63.9708 38.4007 68.5729 42.11 70.5406M49.2357 20.4312C45.0368 20.4312 41.6329 23.8351 41.6329 28.034C41.6329 32.233 45.0368 35.6369 49.2357 35.6369C53.4347 35.6369 56.8386 32.233 56.8386 28.034C56.8386 23.8351 53.4347 20.4312 49.2357 20.4312ZM22.5606 15.4854C18.3617 15.4854 14.9578 18.8893 14.9578 23.0883C14.9578 27.2873 18.3617 30.6911 22.5606 30.6911C26.7596 30.6911 30.1635 27.2873 30.1635 23.0883C30.1635 18.8893 26.7596 15.4854 22.5606 15.4854V15.4854Z" fill="#F43B22"/>
<path d="M6.03574 19.119C4.0834 19.1191 2.18965 18.0879 1.1748 16.2599C-0.314502 13.5781 0.652441 10.1968 3.33442 8.70762C8.40352 5.89292 13.893 3.72012 19.6503 2.24941C25.4121 0.777686 31.3893 0.0208012 37.4158 4.32395e-07C43.419 -0.0205074 49.4048 0.690088 55.1944 2.11274C61.0986 3.56353 66.7374 5.73926 71.954 8.57959C74.6483 10.0465 75.6431 13.4196 74.1762 16.1137C72.7093 18.8077 69.3359 19.8029 66.642 18.3357C62.2641 15.952 57.5206 14.1233 52.5435 12.9004C47.7028 11.711 42.6999 11.1081 37.6709 11.1081L37.454 11.1083C32.3413 11.1261 27.2761 11.7667 22.3995 13.0124C17.5642 14.2475 12.9642 16.0667 8.72695 18.4194C7.90418 18.8782 6.97778 19.119 6.03574 19.119V19.119Z" fill="#C4790C"/>
</g>
<defs>
<clipPath id="clip0_1_2">
<rect width="75" height="75" fill="white"/>
</clipPath>
</defs>
</svg>
